<svg width="48" height="48" viewBox="0 0 48 48" fill="none" xmlns="http://www.w3.org/2000/svg">
<path d="M14.582 15.1631H33.1867H14.582ZM14.582 20.7445H33.1867H14.582ZM24.8146 32.0933C24.7216 31.5352 24.2564 31.0701 23.6983 30.977C23.6983 30.884 23.6053 30.884 23.6053 30.791C23.7913 30.2329 23.6983 29.6747 23.2332 29.3026C22.7681 28.9305 22.1169 28.9305 21.6518 29.2096C21.5588 29.2096 21.5588 29.2096 21.4658 29.1166C21.2797 28.5584 20.8146 28.1863 20.1634 28.1863C19.6053 28.1863 19.0471 28.5584 18.8611 29.1166C18.7681 29.1166 18.7681 29.1166 18.6751 29.2096C18.2099 28.9305 17.5588 28.9305 17.0937 29.3026C16.6285 29.6747 16.5355 30.2329 16.7216 30.791C16.7216 30.884 16.6285 30.884 16.6285 30.977C16.0704 31.0701 15.6053 31.5352 15.5123 32.0933C15.4192 32.6515 15.6983 33.2096 16.1634 33.4887C16.1634 33.5817 16.1634 33.6747 16.1634 33.7677C15.7913 34.2329 15.7913 34.791 16.0704 35.2561C16.3495 35.7212 16.9076 36.0003 17.4658 35.9073C17.5588 36.0003 17.6518 36.0003 17.6518 36.0933C17.6518 36.6515 18.0239 37.1166 18.489 37.3026C19.0471 37.4887 19.6053 37.3026 19.9774 36.9305C20.0704 36.9305 20.0704 36.9305 20.1634 36.9305C20.2564 36.9305 20.2565 36.9305 20.3495 36.9305C20.6285 37.2096 21.0006 37.3956 21.3727 37.3956C21.5588 37.3956 21.6518 37.3956 21.8378 37.3026C22.396 37.1166 22.6751 36.6515 22.6751 36.0933C22.7681 36.0003 22.8611 36.0003 22.8611 35.9073C23.4192 36.0003 23.9774 35.7212 24.2564 35.2561C24.5355 34.791 24.4425 34.1398 24.1634 33.7677C24.1634 33.6747 24.1634 33.5817 24.1634 33.4887C24.6285 33.2096 24.9076 32.6515 24.8146 32.0933Z" stroke="#1A1C23" stroke-width="2" stroke-miterlimit="10" stroke-linejoin="round"/>
<path d="M14.5814 41.2093H9V4H38.7674V41.2093H25.7442" stroke="#1A1C23" stroke-width="2" stroke-miterlimit="10" stroke-linejoin="round"/>
<path d="M23.8833 35.6279V44L20.1623 41.2093L16.4414 44V35.6279" stroke="#1A1C23" stroke-width="2" stroke-miterlimit="10" stroke-linejoin="round"/>
</svg>
