<svg width="48" height="48" viewBox="0 0 48 48" fill="none" xmlns="http://www.w3.org/2000/svg">
<path d="M24.1 7C14.695 7 7 14.695 7 24.1C7 33.505 14.695 41.2 24.1 41.2C33.505 41.2 41.2 33.505 41.2 24.1C41.2 14.695 33.505 7 24.1 7Z" stroke="#1A1C23" stroke-width="2" stroke-miterlimit="10" stroke-linecap="round" stroke-linejoin="round"/>
<path d="M13.9961 31.8711C17.7884 31.8711 16.9249 33.4256 25.7733 33.4256C32.4447 33.4256 32.3747 31.8104 32.3747 31.1078C32.3747 30.3352 31.9534 29.7732 31.9534 29.7732C31.9534 29.7732 33.4279 29.212 33.4279 27.9482C33.4279 26.7543 32.304 26.333 32.304 26.333C32.304 26.333 33.4279 25.771 33.4279 24.5771C33.4279 23.3133 32.1641 22.892 32.1641 22.892C32.1641 22.892 32.3048 21.9787 32.3048 21.4175C32.3048 20.7149 31.5834 20.2127 30.3196 20.2127C28.4938 20.2127 28.5917 20.2127 26.2599 20.2127C24.7054 20.2127 23.6568 19.636 24.2887 18.2315C25.0614 16.6163 25.9886 14.2542 25.0753 12.709C24.5134 11.7257 22.7575 10.9531 22.5469 12.709C22.1256 17.1332 18.8921 17.9058 17.3469 19.7316C16.0116 21.3468 15.4006 23.3211 13.9961 23.3211" stroke="#1A1C23" stroke-width="2" stroke-miterlimit="10" stroke-linejoin="round"/>
</svg>
