<svg width="48" height="48" viewBox="0 0 48 48" fill="none" xmlns="http://www.w3.org/2000/svg">
<path d="M40.6037 8.99521V5.50303L26.4687 4.00638C25.8035 3.92323 25.3878 4.67156 25.7203 5.17044L28.9631 8.99521H40.6037ZM15.3269 27.2876H7.42795C6.92907 27.2876 6.59648 27.1213 6.51333 26.6224L4.01891 14.3998C3.93577 13.8177 4.10206 13.1526 5.01668 13.1526H12.6662C13.2483 13.1526 13.664 13.402 13.7471 13.9009L16.2416 26.373C16.3247 26.7887 16.0753 27.2876 15.3269 27.2876Z" stroke="#1A1C23" stroke-width="2" stroke-miterlimit="10" stroke-linecap="round" stroke-linejoin="round"/>
<path d="M26.7187 44.0001L43.0156 23.3796M23.9749 39.7596L38.6088 21.5503M40.6043 12.321C40.6043 15.5637 38.0267 18.1413 34.784 18.1413C31.5413 18.1413 28.9637 15.5637 28.9637 12.321H40.6043ZM40.6043 12.321H26.1367C25.721 12.321 25.4715 11.8221 25.8041 11.4895L28.9637 8.99512H40.6043V12.321ZM39.1908 21.4672H29.6289C28.2985 21.4672 26.3861 22.2155 25.3884 23.047L17.5725 30.0314L14.8287 27.2875H6.92969L15.2444 36.3506C15.8264 36.9326 16.6579 37.2652 17.4062 37.2652C18.1546 37.2652 18.8197 37.0157 19.4018 36.5168L23.8917 32.6089V43.917H43.8471V26.2066C43.9302 23.5459 41.8515 21.4672 39.1908 21.4672Z" stroke="#1A1C23" stroke-width="2" stroke-miterlimit="10" stroke-linecap="round" stroke-linejoin="round"/>
<path d="M40.6028 12.321C40.6028 15.5637 38.0252 18.1413 34.7825 18.1413C31.5397 18.1413 28.9622 15.5637 28.9622 12.321H40.6028ZM40.6028 12.321H26.1351C25.7194 12.321 25.47 11.8221 25.8026 11.4895L28.9622 8.99512H40.6028V12.321Z" stroke="#1A1C23" stroke-width="2" stroke-miterlimit="10" stroke-linecap="round" stroke-linejoin="round"/>
<path d="M15.3269 27.2874H7.42795C6.92907 27.2874 6.59648 27.1211 6.51333 26.6222L4.01891 14.3996C3.93577 13.8175 4.10206 13.1523 5.01668 13.1523H12.6662C13.2483 13.1523 13.664 13.4018 13.7471 13.9007L16.2416 26.3728C16.3247 26.7885 16.0753 27.2874 15.3269 27.2874Z" stroke="#1A1C23" stroke-width="2" stroke-miterlimit="10" stroke-linecap="round" stroke-linejoin="round"/>
<path d="M5 13.2564L15.3103 9.01593C15.726 8.93278 16.1417 9.18223 16.2249 9.59796L19.0519 23.8161L16.2249 24.8142" stroke="#1A1C23" stroke-width="2" stroke-miterlimit="10" stroke-linecap="round" stroke-linejoin="round"/>
</svg>
