<svg width="32" height="32" viewBox="0 0 32 32" fill="none" xmlns="http://www.w3.org/2000/svg">
<path opacity="0.25" d="M16.0007 29.3337C8.64732 29.3337 2.66732 23.3523 2.66732 16.0003C2.66732 8.64833 8.64732 2.66699 16.0007 2.66699C23.3527 2.66699 29.334 8.64833 29.334 16.0003C29.334 23.3523 23.3527 29.3337 16.0007 29.3337Z" fill="#A9A9A9"/>
<path fill-rule="evenodd" clip-rule="evenodd" d="M22.0391 9.95989C21.6486 9.56936 21.0154 9.56936 20.6249 9.95989L9.95826 20.6266C9.56773 21.0171 9.56773 21.6502 9.95826 22.0408C10.3488 22.4313 10.9819 22.4313 11.3725 22.0408L22.0391 11.3741C22.4297 10.9836 22.4297 10.3504 22.0391 9.95989Z" fill="#A9A9A9"/>
<path fill-rule="evenodd" clip-rule="evenodd" d="M9.95891 9.95989C10.3494 9.56936 10.9826 9.56936 11.3731 9.95989L22.0398 20.6266C22.4303 21.0171 22.4303 21.6502 22.0398 22.0408C21.6493 22.4313 21.0161 22.4313 20.6256 22.0408L9.95891 11.3741C9.56838 10.9836 9.56838 10.3504 9.95891 9.95989Z" fill="#A9A9A9"/>
</svg>
