<svg width="20" height="20" viewBox="0 0 20 20" fill="none" xmlns="http://www.w3.org/2000/svg">
<path d="M8.13411 11.9724C7.65495 11.4941 7.36328 10.8441 7.36328 10.1149C7.36328 8.65406 8.53995 7.47656 9.99995 7.47656C10.7224 7.47656 11.3874 7.76906 11.8583 8.2474" stroke="#1A1C23" stroke-width="1.5" stroke-linecap="round" stroke-linejoin="round"/>
<path d="M12.5868 10.582C12.3935 11.657 11.5468 12.5054 10.4727 12.7004" stroke="#1A1C23" stroke-width="1.5" stroke-linecap="round" stroke-linejoin="round"/>
<path d="M5.54518 14.56C4.22268 13.5217 3.10268 12.005 2.29102 10.1142C3.11102 8.21499 4.23852 6.68999 5.56935 5.64332C6.89185 4.59665 8.41768 4.02832 9.99935 4.02832C11.5902 4.02832 13.1152 4.60499 14.446 5.65915" stroke="#1A1C23" stroke-width="1.5" stroke-linecap="round" stroke-linejoin="round"/>
<path d="M16.2053 7.49219C16.7787 8.25385 17.2828 9.13302 17.707 10.1139C16.0678 13.9114 13.1712 16.1989 9.99867 16.1989C9.27951 16.1989 8.57034 16.0822 7.88867 15.8547" stroke="#1A1C23" stroke-width="1.5" stroke-linecap="round" stroke-linejoin="round"/>
<path d="M16.5727 3.54102L3.42773 16.686" stroke="#1A1C23" stroke-width="1.5" stroke-linecap="round" stroke-linejoin="round"/>
</svg>
