<svg width="64" height="64" viewBox="0 0 64 64" fill="none" xmlns="http://www.w3.org/2000/svg">
<circle cx="28" cy="36" r="26.5" fill="white" stroke="#F4F5F6" stroke-width="3"/>
<path d="M28.0555 23.333C28.0239 23.3336 27.9925 23.3369 27.9615 23.3428C21.0049 23.3977 15.4018 28.9989 15.344 35.9548C15.3306 36.0241 15.3306 36.0952 15.344 36.1644C15.3983 43.1216 20.9998 48.7252 27.9561 48.783C28.0253 48.7963 28.0964 48.7963 28.1657 48.783C35.1228 48.7287 40.7264 43.1272 40.7842 36.1709C40.7981 36.0995 40.7977 36.0261 40.7832 35.9548C40.7637 33.6646 40.1338 31.5283 39.0913 29.7039C39.0561 29.6393 39.0083 29.5825 38.9508 29.5366C38.8933 29.4907 38.8273 29.4567 38.7565 29.4367C38.6857 29.4166 38.6117 29.4109 38.5386 29.4198C38.4656 29.4287 38.3951 29.4521 38.3313 29.4886C38.2674 29.5251 38.2115 29.574 38.1667 29.6324C38.122 29.6907 38.0893 29.7574 38.0706 29.8286C38.052 29.8997 38.0477 29.9739 38.058 30.0467C38.0684 30.1196 38.0931 30.1896 38.1309 30.2527C39.0151 31.8003 39.5706 33.5897 39.6617 35.5097H38.5738C38.5005 35.5087 38.4278 35.5222 38.3597 35.5496C38.2917 35.5769 38.2298 35.6175 38.1776 35.669C38.1254 35.7204 38.084 35.7817 38.0557 35.8494C38.0274 35.917 38.0128 35.9896 38.0128 36.0629C38.0128 36.1362 38.0274 36.2088 38.0557 36.2764C38.084 36.344 38.1254 36.4053 38.1776 36.4568C38.2298 36.5083 38.2917 36.5489 38.3597 36.5762C38.4278 36.6035 38.5005 36.6171 38.5738 36.616H39.6661C39.3887 42.6198 34.6211 47.3875 28.6173 47.6648V46.5726C28.6183 46.4986 28.6044 46.4251 28.5765 46.3566C28.5487 46.288 28.5073 46.2257 28.4549 46.1735C28.4025 46.1212 28.3402 46.0799 28.2716 46.0522C28.203 46.0244 28.1295 46.0107 28.0555 46.0119C27.909 46.0142 27.7693 46.0745 27.6673 46.1796C27.5652 46.2847 27.509 46.4261 27.511 46.5726V47.6648C21.5072 47.3875 16.7395 42.6198 16.4622 36.616H17.5544C17.6277 36.6171 17.7005 36.6035 17.7685 36.5762C17.8365 36.5489 17.8984 36.5083 17.9506 36.4568C18.0028 36.4053 18.0443 36.344 18.0726 36.2764C18.1009 36.2088 18.1154 36.1362 18.1154 36.0629C18.1154 35.9896 18.1009 35.917 18.0726 35.8494C18.0443 35.7817 18.0028 35.7204 17.9506 35.669C17.8984 35.6175 17.8365 35.5769 17.7685 35.5496C17.7005 35.5222 17.6277 35.5087 17.5544 35.5097H16.4611C16.7384 29.506 21.5072 24.7383 27.511 24.4609V25.5532C27.5099 25.6265 27.5235 25.6993 27.5508 25.7673C27.5781 25.8353 27.6187 25.8972 27.6702 25.9494C27.7217 26.0016 27.783 26.043 27.8506 26.0713C27.9182 26.0996 27.9908 26.1142 28.0641 26.1142C28.1374 26.1142 28.21 26.0996 28.2776 26.0713C28.3452 26.043 28.4066 26.0016 28.458 25.9494C28.5095 25.8972 28.5501 25.8353 28.5774 25.7673C28.6048 25.6993 28.6183 25.6265 28.6173 25.5532V24.4707C31.0662 24.5887 33.3334 25.4713 35.1837 26.8701C35.2416 26.914 35.3076 26.946 35.378 26.9643C35.4483 26.9827 35.5215 26.987 35.5935 26.977C35.6655 26.967 35.7348 26.9429 35.7975 26.9062C35.8602 26.8694 35.915 26.8207 35.9589 26.7627C36.0027 26.7047 36.0347 26.6387 36.0531 26.5684C36.0714 26.498 36.0757 26.4248 36.0657 26.3528C36.0557 26.2808 36.0316 26.2115 35.9948 26.1488C35.9581 26.0861 35.9093 26.0313 35.8513 25.9875C33.7115 24.3698 31.0495 23.3707 28.1765 23.3449C28.1367 23.3365 28.0961 23.3326 28.0555 23.333ZM40.2538 24.4415C40.1733 24.4393 40.0934 24.4547 40.0195 24.4866C39.9456 24.5185 39.8795 24.5662 39.826 24.6262L28.0468 37.476L23.4769 32.9061C23.426 32.853 23.3649 32.8106 23.2973 32.7814C23.2298 32.7522 23.1571 32.7368 23.0835 32.736C23.0099 32.7353 22.9369 32.7492 22.8688 32.7771C22.8006 32.8049 22.7387 32.846 22.6867 32.898C22.6347 32.9501 22.5935 33.012 22.5657 33.0801C22.5379 33.1482 22.524 33.2212 22.5247 33.2948C22.5255 33.3684 22.5409 33.4411 22.5701 33.5087C22.5993 33.5762 22.6417 33.6373 22.6947 33.6883L28.0814 39.0749L40.6405 25.3738C40.7137 25.2962 40.7628 25.1991 40.7821 25.0942C40.8013 24.9893 40.7898 24.881 40.7489 24.7825C40.708 24.684 40.6396 24.5994 40.5517 24.5389C40.4639 24.4784 40.3604 24.4446 40.2538 24.4415Z" fill="#1A56FF" stroke="#1A56FF" stroke-width="0.5"/>
<circle cx="52" cy="12" r="11" fill="#1A56FF" stroke="white" stroke-width="2"/>
<path d="M55.0048 14.7812V16H49.2275V14.957L51.999 11.9629C52.288 11.6348 52.5166 11.3496 52.6845 11.1074C52.8525 10.8652 52.9716 10.6465 53.042 10.4512C53.1162 10.252 53.1533 10.0625 53.1533 9.88281C53.1533 9.62109 53.1064 9.39258 53.0127 9.19727C52.9189 8.99805 52.7822 8.84375 52.6025 8.73438C52.4267 8.625 52.2099 8.57031 51.9521 8.57031C51.667 8.57031 51.4228 8.63672 51.2197 8.76953C51.0205 8.89844 50.8681 9.07812 50.7627 9.30859C50.6611 9.53906 50.6103 9.80273 50.6103 10.0996H49.0576C49.0576 9.5957 49.1748 9.13672 49.4091 8.72266C49.6435 8.30469 49.9795 7.9707 50.417 7.7207C50.8545 7.4707 51.374 7.3457 51.9755 7.3457C52.5615 7.3457 53.0576 7.44336 53.4638 7.63867C53.8701 7.83008 54.1787 8.10352 54.3896 8.45898C54.6005 8.81445 54.706 9.23828 54.706 9.73047C54.706 10.0039 54.6611 10.2734 54.5712 10.5391C54.4814 10.8047 54.3545 11.0684 54.1904 11.3301C54.0302 11.5879 53.8388 11.8496 53.6162 12.1152C53.3935 12.3809 53.1455 12.6523 52.872 12.9297L51.208 14.7812H55.0048Z" fill="white"/>
</svg>
