<svg width="56" height="56" viewBox="0 0 56 56" fill="none" xmlns="http://www.w3.org/2000/svg">
<circle cx="28" cy="28" r="28" fill="#1A56FF"/>
<path fill-rule="evenodd" clip-rule="evenodd" d="M37.7071 19.2929C37.8946 19.4804 38 19.7348 38 20L38 30C38 30.5523 37.5523 31 37 31L29 31C28.4477 31 28 30.5523 28 30L28 29L22 29L22 37L23 37C23.5523 37 24 37.4477 24 38C24 38.5523 23.5523 39 23 39L19 39C18.4477 39 18 38.5523 18 38C18 37.4477 18.4477 37 19 37L20 37L20 18C20 17.4477 20.4477 17 21 17L29 17C29.5523 17 30 17.4477 30 18L30 19L37 19C37.2652 19 37.5196 19.1054 37.7071 19.2929ZM28 19L22 19L22 27L29 27C29.5523 27 30 27.4477 30 28L30 29L36 29L36 21L29 21C28.4477 21 28 20.5523 28 20L28 19Z" fill="white"/>
</svg>
