<svg width="64" height="64" viewBox="0 0 64 64" fill="none" xmlns="http://www.w3.org/2000/svg">
<circle cx="28" cy="36" r="26.5" fill="white" stroke="#F4F5F6" stroke-width="3"/>
<path d="M40.3284 34.5767H40.8293C41.1633 34.5767 41.386 34.354 41.386 34.02V31.7933C41.386 31.4593 41.1633 31.2367 40.8293 31.2367H15.2227C14.8887 31.2367 14.666 31.4593 14.666 31.7933V34.02C14.666 34.354 14.8887 34.5767 15.2227 34.5767H15.7237L18.841 44.9307C19.008 45.376 19.3977 45.71 19.8987 45.71H29.696M20.7893 31.2367L27.9703 24L35.2627 31.2367H20.7893Z" stroke="#1A56FF" stroke-width="1.5" stroke-miterlimit="10" stroke-linecap="round" stroke-linejoin="round"/>
<path d="M28.0078 36.2461L33.0178 47.3794L34.6878 44.0394L38.5483 47.3794L40.2717 45.337L36.3578 42.0911L39.1411 40.1428L28.0078 36.2461Z" stroke="#1A56FF" stroke-width="1.5" stroke-miterlimit="10" stroke-linecap="round" stroke-linejoin="round"/>
<path d="M39.6692 38.559L40.8593 34.7431C40.9512 34.4497 40.7869 34.1374 40.4936 34.0456C40.1991 33.9549 39.8879 34.118 39.7966 34.4113L38.6182 38.1905L39.6692 38.559ZM30.1847 45.1539H28.582V46.2672H30.6857L30.1847 45.1539Z" fill="#1A56FF"/>
<circle cx="52" cy="12" r="11" fill="#1A56FF" stroke="white" stroke-width="2"/>
<path d="M53.2119 7.44531V16H51.6591V9.25586L49.6025 9.93555V8.68164L53.0361 7.44531H53.2119Z" fill="white"/>
</svg>
