<svg width="64" height="64" viewBox="0 0 64 64" fill="none" xmlns="http://www.w3.org/2000/svg">
<circle cx="28" cy="36" r="26.5" fill="white" stroke="#F4F5F6" stroke-width="3"/>
<path d="M23.615 22C23.3481 22.0503 23.1556 22.2866 23.16 22.56V23.12H18.68C17.7591 23.12 17 23.8791 17 24.8V48.32C17 49.2409 17.7591 50 18.68 50H37.72C38.6409 50 39.4 49.2409 39.4 48.32V24.8C39.4 23.8791 38.6409 23.12 37.72 23.12H33.24V22.56C33.24 22.2516 32.9884 22 32.68 22H23.72C23.7025 22 23.685 22 23.6675 22C23.65 22 23.6325 22 23.615 22ZM24.28 23.12H32.12V26.48H24.28V23.12ZM18.68 24.24H23.16V25.36H19.24V47.76H37.16V25.36H33.24V24.24H37.72C38.0306 24.24 38.28 24.4894 38.28 24.8V48.32C38.28 48.6306 38.0306 48.88 37.72 48.88H18.68C18.3694 48.88 18.12 48.6306 18.12 48.32V24.8C18.12 24.4894 18.3694 24.24 18.68 24.24ZM20.36 26.48H23.16V27.04C23.16 27.3484 23.4116 27.6 23.72 27.6H32.68C32.9884 27.6 33.24 27.3484 33.24 27.04V26.48H36.04V46.64H20.36V26.48ZM32.5225 32.43L32.2075 32.9025L27.6575 39.955L24.6475 37.26L24.245 36.8925L23.4925 37.715L23.9125 38.1L27.3775 41.2325L27.8675 41.67L28.2175 41.1275L33.1525 33.4975L33.45 33.0425L32.5225 32.43Z" fill="#1A56FF"/>
<circle cx="52" cy="12" r="11" fill="#1A56FF" stroke="white" stroke-width="2"/>
<path d="M50.9209 11.0488H51.7939C52.1025 11.0488 52.3564 10.9961 52.5556 10.8906C52.7587 10.7812 52.9091 10.6328 53.0068 10.4453C53.1084 10.2539 53.1591 10.0332 53.1591 9.7832C53.1591 9.53711 53.1142 9.32422 53.0244 9.14453C52.9345 8.96094 52.7978 8.82031 52.6142 8.72266C52.4345 8.62109 52.2041 8.57031 51.9228 8.57031C51.6962 8.57031 51.4873 8.61523 51.2959 8.70508C51.1084 8.79492 50.958 8.92383 50.8447 9.0918C50.7353 9.25586 50.6806 9.45312 50.6806 9.68359H49.1279C49.1279 9.22266 49.249 8.81836 49.4912 8.4707C49.7373 8.11914 50.0693 7.84375 50.4873 7.64453C50.9052 7.44531 51.372 7.3457 51.8877 7.3457C52.4502 7.3457 52.9423 7.43945 53.3642 7.62695C53.79 7.81055 54.1201 8.08203 54.3545 8.44141C54.5927 8.80078 54.7119 9.24609 54.7119 9.77734C54.7119 10.0312 54.6513 10.2852 54.5302 10.5391C54.413 10.7891 54.2392 11.0156 54.0087 11.2188C53.7822 11.418 53.5029 11.5801 53.1709 11.7051C52.8427 11.8262 52.4658 11.8867 52.04 11.8867H50.9209V11.0488ZM50.9209 12.2441V11.418H52.04C52.5205 11.418 52.9365 11.4746 53.288 11.5879C53.6435 11.6973 53.9365 11.8535 54.167 12.0566C54.3974 12.2559 54.5673 12.4883 54.6767 12.7539C54.79 13.0195 54.8466 13.3047 54.8466 13.6094C54.8466 14.0078 54.7724 14.3633 54.624 14.6758C54.4755 14.9844 54.2666 15.2461 53.997 15.4609C53.7314 15.6758 53.4189 15.8398 53.0595 15.9531C52.7002 16.0625 52.3115 16.1172 51.8935 16.1172C51.5302 16.1172 51.1767 16.0684 50.833 15.9707C50.4931 15.8691 50.1865 15.7188 49.913 15.5195C49.6396 15.3164 49.4228 15.0625 49.2627 14.7578C49.1025 14.4492 49.0224 14.0918 49.0224 13.6855H50.5752C50.5752 13.9199 50.6318 14.1289 50.7451 14.3125C50.8623 14.4961 51.0224 14.6406 51.2255 14.7461C51.4326 14.8477 51.665 14.8984 51.9228 14.8984C52.208 14.8984 52.4521 14.8477 52.6552 14.7461C52.8623 14.6406 53.0205 14.4922 53.1298 14.3008C53.2392 14.1055 53.2939 13.873 53.2939 13.6035C53.2939 13.2832 53.2334 13.0234 53.1123 12.8242C52.9912 12.625 52.8173 12.4785 52.5908 12.3848C52.3681 12.291 52.1025 12.2441 51.7939 12.2441H50.9209Z" fill="white"/>
</svg>
