<svg width="64" height="64" viewBox="0 0 64 64" fill="none" xmlns="http://www.w3.org/2000/svg">
<circle cx="28" cy="36" r="26.5" fill="white" stroke="#F4F5F6" stroke-width="3"/>
<path d="M20.334 22.6671C18.6771 22.6671 17.334 24.0102 17.334 25.6671V46.4403C17.334 48.0972 18.6771 49.4403 20.334 49.4403H35.2869C36.9438 49.4403 38.2869 48.0972 38.2869 46.4403V31.2396C38.2869 30.444 37.9709 29.6809 37.4083 29.1183L31.8357 23.5457C31.2731 22.9831 30.51 22.667 29.7144 22.667L20.334 22.6671ZM18.498 26.8312C18.498 25.1743 19.8412 23.8312 21.498 23.8312H27.1386C28.7954 23.8312 30.1386 25.1743 30.1386 26.8312V27.8155C30.1386 29.4723 31.4817 30.8155 33.1386 30.8155H34.1229C35.7797 30.8155 37.1229 32.1586 37.1229 33.8155V45.2763C37.1229 46.9331 35.7797 48.2763 34.1229 48.2763H21.498C19.8412 48.2763 18.498 46.9331 18.498 45.2763V26.8312ZM31.3026 28.1918C31.3026 26.8913 32.8749 26.2401 33.7944 27.1596C34.714 28.0792 34.0627 29.6514 32.7623 29.6514C31.9561 29.6514 31.3026 28.9979 31.3026 28.1918ZM21.9902 27.3233C21.6688 27.3233 21.4082 27.5839 21.4082 27.9054C21.4082 28.2268 21.6688 28.4874 21.9902 28.4874H28.3925C28.7139 28.4874 28.9745 28.2268 28.9745 27.9054C28.9745 27.5839 28.7139 27.3233 28.3925 27.3233H21.9902ZM21.9902 29.6514C21.6688 29.6514 21.4082 29.912 21.4082 30.2335C21.4082 30.5549 21.6688 30.8155 21.9902 30.8155H28.3925C28.7139 30.8155 28.9745 30.5549 28.9745 30.2335C28.9745 29.912 28.7139 29.6514 28.3925 29.6514H21.9902ZM21.9902 31.9795C21.6688 31.9795 21.4082 32.2401 21.4082 32.5616C21.4082 32.883 21.6688 33.1436 21.9902 33.1436H34.2128C34.5342 33.1436 34.7948 32.883 34.7948 32.5616C34.7948 32.2401 34.5342 31.9795 34.2128 31.9795H21.9902ZM21.9902 34.3076C21.6688 34.3076 21.4082 34.5682 21.4082 34.8897C21.4082 35.2111 21.6688 35.4717 21.9902 35.4717H34.2128C34.5342 35.4717 34.7948 35.2111 34.7948 34.8897C34.7948 34.5682 34.5342 34.3076 34.2128 34.3076H21.9902ZM21.9902 36.6358C21.6688 36.6358 21.4082 36.8963 21.4082 37.2178C21.4082 37.5392 21.6688 37.7998 21.9902 37.7998H34.2128C34.5342 37.7998 34.7948 37.5392 34.7948 37.2178C34.7948 36.8963 34.5342 36.6358 34.2128 36.6358H21.9902Z" fill="#1A56FF"/>
<path fill-rule="evenodd" clip-rule="evenodd" d="M24.9917 39.292C24.3301 39.292 23.7913 39.7149 23.4275 40.256C23.0638 40.7971 22.8455 41.4928 22.8455 42.2567C22.8455 42.8978 23.0456 43.5935 23.4275 44.1847C23.4547 44.2266 23.4938 44.2598 23.5334 44.2934C23.5668 44.3217 23.6005 44.3504 23.6276 44.3847C23.4389 44.553 23.082 44.9122 23.082 44.9122C22.8955 45.0259 22.7864 45.2328 22.8023 45.451C22.816 45.6693 22.9524 45.8603 23.1547 45.9466C23.3548 46.033 23.5867 45.9989 23.7549 45.858C23.7549 45.858 24.2437 45.3828 24.5916 45.0759C24.6497 45.0987 24.7062 45.1253 24.7628 45.1519C24.9144 45.223 25.0659 45.2941 25.2464 45.2941C26.7151 45.2941 27.6882 44.5029 28.2474 43.7845C28.3935 43.5959 28.4798 43.4543 28.5758 43.2968C28.5874 43.2778 28.5992 43.2585 28.6112 43.2389C28.6175 43.258 28.6236 43.277 28.6298 43.2959C28.6636 43.4002 28.6962 43.5006 28.7385 43.6026C28.7749 43.689 28.8158 43.7754 28.884 43.8754C28.888 43.8812 28.8921 43.8874 28.8964 43.8939C28.9679 44.0009 29.1029 44.2028 29.4479 44.2028C29.8126 44.2028 30.0453 44.0388 30.2604 43.887C30.2746 43.877 30.2887 43.8671 30.3027 43.8573C30.4517 43.753 30.591 43.6409 30.7319 43.5273C30.8061 43.4676 30.8807 43.4075 30.9575 43.348C31.4031 43.0001 31.851 42.7296 32.1761 42.7296C32.3853 42.7319 32.5808 42.6227 32.6877 42.4408C32.7923 42.259 32.7923 42.0362 32.6877 41.8543C32.5808 41.6724 32.3853 41.5633 32.1761 41.5655C31.3576 41.5655 30.737 42.0384 30.2482 42.4204C30.1595 42.4898 30.0781 42.5555 30.0024 42.6167C29.8996 42.6998 29.8071 42.7745 29.7207 42.8387C29.7113 42.8105 29.7025 42.7883 29.6933 42.7653C29.6848 42.7439 29.676 42.7217 29.6661 42.6932C29.6025 42.5068 29.5229 42.3181 29.4297 42.1294C29.4203 42.1107 29.4112 42.0914 29.402 42.0718C29.3639 41.9913 29.3228 41.9043 29.2478 41.8202C29.1546 41.7156 28.9773 41.5655 28.7022 41.5655C28.3646 41.5655 28.2253 41.7492 28.1329 41.871C28.122 41.8853 28.1118 41.8989 28.1019 41.9111C28.0087 42.0271 27.9382 42.1316 27.8655 42.2567C27.8433 42.2939 27.8207 42.3322 27.7977 42.3712C27.6674 42.5922 27.5216 42.8394 27.338 43.0752C26.947 43.5776 26.3877 43.9914 25.501 44.0755C26.0989 43.2707 26.6287 42.2681 26.6287 41.0563C26.6287 40.6629 26.5559 40.2332 26.2831 39.874C26.0103 39.5148 25.526 39.292 24.9917 39.292ZM24.9918 40.455C25.2464 40.455 25.2941 40.5028 25.3555 40.5823C25.4169 40.6619 25.4647 40.8347 25.4647 41.0552C25.4647 41.9828 24.9599 42.8536 24.4097 43.547C24.1665 43.1696 24.0096 42.6399 24.0096 42.2557C24.0096 41.7214 24.171 41.2212 24.3915 40.8915C24.6121 40.5619 24.8644 40.455 24.9918 40.455Z" fill="#1A56FF"/>
<circle cx="52" cy="12" r="11" fill="#1A56FF" stroke="white" stroke-width="2"/>
<path d="M55.1513 12.8887V14.1074H49.0048L48.9404 13.1699L52.5556 7.46875H53.792L52.456 9.73633L50.5166 12.8887H55.1513ZM54.1377 7.46875V16H52.5849V7.46875H54.1377Z" fill="white"/>
</svg>
