<svg width="64" height="64" viewBox="0 0 64 64" fill="none" xmlns="http://www.w3.org/2000/svg">
<circle cx="28" cy="36" r="26.5" fill="white" stroke="#F4F5F6" stroke-width="3"/>
<path d="M12 24V25.28H29.98C30.235 25.28 30.56 25.605 30.56 25.86V43.2H24.1C23.795 41.385 22.2175 40 20.32 40C18.4225 40 16.845 41.385 16.54 43.2H13.92C13.565 43.2 13.28 42.915 13.28 42.56V36.8H12V42.56C12 43.6125 12.8675 44.48 13.92 44.48H16.54C16.845 46.295 18.4225 47.68 20.32 47.68C22.2175 47.68 23.795 46.295 24.1 44.48H33.82C34.125 46.295 35.7025 47.68 37.6 47.68C39.4975 47.68 41.075 46.295 41.38 44.48H42.08C42.6125 44.48 43.08 44.24 43.42 43.9C43.76 43.56 44 43.0925 44 42.56V36.42C44 35.7 43.725 35.04 43.48 34.54C43.235 34.04 42.98 33.68 42.98 33.68V33.66L40.36 30.14H40.34V30.12C39.7725 29.41 38.8625 28.48 37.6 28.48H32.48C32.25 28.48 32.04 28.5225 31.84 28.6V25.86C31.84 24.835 31.005 24 29.98 24H12ZM12 26.56V27.84H23.52V26.56H12ZM12 29.12V30.4H21.6V29.12H12ZM32.48 29.76H35.04V35.52C35.04 36.0525 35.28 36.52 35.62 36.86C35.96 37.2 36.4275 37.44 36.96 37.44H42.72V42.56C42.72 42.6675 42.64 42.84 42.5 42.98C42.36 43.12 42.1875 43.2 42.08 43.2H41.38C41.075 41.385 39.4975 40 37.6 40C35.7025 40 34.125 41.385 33.82 43.2H31.84V30.4C31.84 30.2925 31.92 30.12 32.06 29.98C32.2 29.84 32.3725 29.76 32.48 29.76ZM36.32 29.76H37.6C38.1275 29.76 38.8625 30.3525 39.32 30.92L41.94 34.42L41.96 34.44C41.9725 34.4575 42.145 34.7025 42.34 35.1C42.5025 35.43 42.5875 35.8225 42.64 36.16H36.96C36.8525 36.16 36.68 36.08 36.54 35.94C36.4 35.8 36.32 35.6275 36.32 35.52V29.76ZM12 31.68V32.96H19.68V31.68H12ZM12 34.24V35.52H17.76V34.24H12ZM20.32 41.28C21.7425 41.28 22.88 42.4175 22.88 43.84C22.88 45.2625 21.7425 46.4 20.32 46.4C18.8975 46.4 17.76 45.2625 17.76 43.84C17.76 42.4175 18.8975 41.28 20.32 41.28ZM37.6 41.28C39.0225 41.28 40.16 42.4175 40.16 43.84C40.16 45.2625 39.0225 46.4 37.6 46.4C36.1775 46.4 35.04 45.2625 35.04 43.84C35.04 42.4175 36.1775 41.28 37.6 41.28Z" fill="#1A56FF"/>
<circle cx="52" cy="12" r="11" fill="#1A56FF" stroke="white" stroke-width="2"/>
<path d="M50.7627 12.0742L49.5263 11.7754L50.0009 7.46875H54.6943V8.75195H51.2841L51.0615 10.7441C51.1826 10.6699 51.3584 10.5957 51.5888 10.5215C51.8232 10.4434 52.0869 10.4043 52.3798 10.4043C52.7861 10.4043 53.1494 10.4707 53.4697 10.6035C53.79 10.7324 54.0615 10.9199 54.2841 11.166C54.5107 11.4121 54.6806 11.7129 54.7939 12.0684C54.9111 12.4199 54.9697 12.8184 54.9697 13.2637C54.9697 13.6543 54.9111 14.0215 54.7939 14.3652C54.6806 14.7051 54.5068 15.0078 54.2724 15.2734C54.038 15.5352 53.7431 15.7422 53.3877 15.8945C53.0322 16.043 52.6142 16.1172 52.1337 16.1172C51.7705 16.1172 51.4209 16.0645 51.0849 15.959C50.7529 15.8496 50.4541 15.6914 50.1884 15.4844C49.9228 15.2734 49.7099 15.0156 49.5498 14.7109C49.3935 14.4062 49.3076 14.0566 49.292 13.6621H50.8212C50.8486 13.9238 50.9189 14.1465 51.0322 14.3301C51.1455 14.5137 51.2939 14.6543 51.4775 14.752C51.665 14.8496 51.8818 14.8984 52.1279 14.8984C52.3505 14.8984 52.542 14.8574 52.7021 14.7754C52.8662 14.6895 53.0009 14.5703 53.1064 14.418C53.2119 14.2656 53.29 14.0859 53.3408 13.8789C53.3916 13.6719 53.417 13.4453 53.417 13.1992C53.417 12.9609 53.3877 12.7441 53.3291 12.5488C53.2705 12.3496 53.1806 12.1777 53.0595 12.0332C52.9384 11.8887 52.7861 11.7773 52.6025 11.6992C52.4228 11.6211 52.2119 11.582 51.9697 11.582C51.6455 11.582 51.3955 11.6309 51.2197 11.7285C51.0478 11.8262 50.8955 11.9414 50.7627 12.0742Z" fill="white"/>
</svg>
