<svg width="216" height="30" viewBox="0 0 216 30" fill="none" xmlns="http://www.w3.org/2000/svg">
<path fill-rule="evenodd" clip-rule="evenodd" d="M201 0C209.284 0 216 6.71573 216 15C216 23.2843 209.284 30 201 30H19.9095C16.8284 30 13.4602 28.4727 11.448 26.4364C9.01217 28.5646 3.92989 30.1686 0.137939 29.8031C0.0894609 29.7985 0.0461404 29.7712 0.021326 29.7296C-0.0130446 29.6721 -0.0045606 29.6012 0.0373612 29.5533L0.0749251 29.5223L0.349258 29.3583C2.14714 28.263 3.32299 27.1283 3.8768 25.9544C4.46833 24.7005 4.72663 21.9705 4.65171 17.7644C4.64103 17.5556 4.63592 17.3459 4.63592 17.1351C4.63592 7.67166 12.3076 0 21.771 0H201Z" fill="#7FDCBE"/>
<path d="M27.626 16.9453V18H23.8467V16.9453H27.626ZM24.2568 10.8906V18H22.9141V10.8906H24.2568ZM27.1328 13.8252V14.8555H23.8467V13.8252H27.1328ZM27.6113 10.8906V11.9502H23.8467V10.8906H27.6113ZM33.2188 15.6611H34.5615C34.5257 16.1364 34.3939 16.5579 34.166 16.9258C33.9382 17.2904 33.6208 17.5768 33.2139 17.7852C32.807 17.9935 32.3138 18.0977 31.7344 18.0977C31.2884 18.0977 30.8864 18.0195 30.5283 17.8633C30.1735 17.7038 29.8691 17.4775 29.6152 17.1846C29.3646 16.8883 29.1725 16.5335 29.0391 16.1201C28.9056 15.7035 28.8389 15.2363 28.8389 14.7188V14.1768C28.8389 13.6592 28.9072 13.1921 29.0439 12.7754C29.1807 12.3587 29.376 12.0039 29.6299 11.7109C29.887 11.4147 30.1947 11.1868 30.5527 11.0273C30.9141 10.8678 31.3177 10.7881 31.7637 10.7881C32.3431 10.7881 32.833 10.8955 33.2334 11.1104C33.6338 11.3219 33.9447 11.6133 34.166 11.9844C34.3874 12.3555 34.5208 12.7819 34.5664 13.2637H33.2236C33.1976 12.9642 33.1325 12.7103 33.0283 12.502C32.9274 12.2936 32.7744 12.1357 32.5693 12.0283C32.3675 11.9176 32.099 11.8623 31.7637 11.8623C31.5033 11.8623 31.2738 11.9111 31.0752 12.0088C30.8799 12.1064 30.7171 12.2529 30.5869 12.4482C30.4567 12.6403 30.359 12.8812 30.2939 13.1709C30.2288 13.4574 30.1963 13.7894 30.1963 14.167V14.7188C30.1963 15.0801 30.2256 15.404 30.2842 15.6904C30.3428 15.9769 30.4339 16.2194 30.5576 16.418C30.6813 16.6165 30.8408 16.7679 31.0361 16.8721C31.2314 16.9762 31.4642 17.0283 31.7344 17.0283C32.0632 17.0283 32.3301 16.9762 32.5352 16.8721C32.7435 16.7679 32.9014 16.6149 33.0088 16.4131C33.1195 16.2113 33.1895 15.9606 33.2188 15.6611ZM40.8037 10.8906V11.9502H37.332V10.8906H40.8037ZM41.7949 10.8906V18H40.4473V10.8906H41.7949ZM37.1172 10.8906H38.4551L38.2793 14.4404C38.2533 14.9645 38.2061 15.4235 38.1377 15.8174C38.0693 16.2113 37.9766 16.5482 37.8594 16.8281C37.7422 17.1048 37.5957 17.3294 37.4199 17.502C37.2441 17.6745 37.0358 17.8014 36.7949 17.8828C36.5573 17.9609 36.2806 18 35.9648 18H35.6279V16.9453L35.8184 16.9258C35.9844 16.9128 36.1276 16.8721 36.248 16.8037C36.3717 16.7354 36.4775 16.6328 36.5654 16.4961C36.6533 16.3561 36.7249 16.1771 36.7803 15.959C36.8389 15.7409 36.8844 15.4756 36.917 15.1631C36.9528 14.8506 36.9788 14.4844 36.9951 14.0645L37.1172 10.8906ZM44.9854 15.8516L47.9883 10.8906H49.3359V18H47.9883V13.0391L44.9854 18H43.6426V10.8906H44.9854V15.8516ZM56.918 14.8311H55.1016L55.0918 13.8838H56.6494C56.9163 13.8838 57.1393 13.8464 57.3184 13.7715C57.4974 13.6966 57.6325 13.5876 57.7236 13.4443C57.818 13.3011 57.8652 13.127 57.8652 12.9219C57.8652 12.694 57.8213 12.5085 57.7334 12.3652C57.6488 12.222 57.5153 12.1178 57.333 12.0527C57.1507 11.9844 56.9196 11.9502 56.6396 11.9502H55.5361V18H54.1934V10.8906H56.6396C57.0433 10.8906 57.403 10.9297 57.7188 11.0078C58.0378 11.0827 58.3079 11.1999 58.5293 11.3594C58.7507 11.5189 58.9183 11.7191 59.0322 11.96C59.1494 12.2008 59.208 12.4873 59.208 12.8193C59.208 13.1123 59.1396 13.3825 59.0029 13.6299C58.8695 13.874 58.6628 14.0726 58.3828 14.2256C58.1061 14.3786 57.7546 14.4665 57.3281 14.4893L56.918 14.8311ZM56.8594 18H54.7061L55.2676 16.9453H56.8594C57.1263 16.9453 57.346 16.9014 57.5186 16.8135C57.6943 16.7256 57.8245 16.6051 57.9092 16.4521C57.9971 16.2959 58.041 16.1169 58.041 15.915C58.041 15.6937 58.002 15.5016 57.9238 15.3389C57.849 15.1761 57.7285 15.0508 57.5625 14.9629C57.3997 14.875 57.1849 14.8311 56.918 14.8311H55.5215L55.5312 13.8838H57.3086L57.6162 14.25C58.0264 14.2533 58.36 14.3346 58.6172 14.4941C58.8776 14.6536 59.0697 14.8587 59.1934 15.1094C59.3171 15.36 59.3789 15.6302 59.3789 15.9199C59.3789 16.3757 59.2796 16.7581 59.0811 17.0674C58.8857 17.3766 58.5993 17.6094 58.2217 17.7656C57.8473 17.9219 57.3932 18 56.8594 18ZM63.8682 11.9697L61.8418 18H60.4209L63.0771 10.8906H63.9854L63.8682 11.9697ZM65.5625 18L63.5264 11.9697L63.4043 10.8906H64.3174L66.9883 18H65.5625ZM65.4697 15.3584V16.418H61.6562V15.3584H65.4697ZM68.8066 10.8906H69.9688L71.9121 16.2422L73.8506 10.8906H75.0176L72.376 18H71.4434L68.8066 10.8906ZM68.2207 10.8906H69.3584L69.5635 15.8076V18H68.2207V10.8906ZM74.4609 10.8906H75.6035V18H74.2607V15.8076L74.4609 10.8906ZM85.1777 13.8252V14.8799H81.4375V13.8252H85.1777ZM81.8037 10.8906V18H80.4609V10.8906H81.8037ZM86.1738 10.8906V18H84.8311V10.8906H86.1738ZM90.2676 15.4756L92.0449 10.8906H93.5049L91.0537 16.667C90.9723 16.8525 90.8796 17.0316 90.7754 17.2041C90.6712 17.3766 90.5459 17.5312 90.3994 17.668C90.2562 17.8014 90.082 17.9072 89.877 17.9854C89.6751 18.0635 89.431 18.1025 89.1445 18.1025C89.0697 18.1025 88.9801 18.0993 88.876 18.0928C88.7718 18.0895 88.6921 18.0846 88.6367 18.0781V17.0234C88.6758 17.0332 88.7393 17.0397 88.8271 17.043C88.9183 17.0462 88.9834 17.0479 89.0225 17.0479C89.2113 17.0479 89.361 17.0186 89.4717 16.96C89.5856 16.8981 89.6751 16.8151 89.7402 16.7109C89.8086 16.6035 89.8688 16.4814 89.9209 16.3447L90.2676 15.4756ZM89.0078 10.8906L90.7119 14.6162L91.1123 16.0664L90.0918 16.0957L87.5527 10.8906H89.0078ZM97.0615 14.9971L94.3857 10.8906H96.041L97.7061 13.8203H98.9609L98.7803 14.9971H97.0615ZM97.7109 14.8066L95.9385 18H94.2637L96.666 13.9668L97.7109 14.8066ZM99.7959 10.8906V18H98.458V10.8906H99.7959ZM103.814 10.8906L101.168 14.9971H99.4639L99.2832 13.8203H100.523L102.154 10.8906H103.814ZM102.262 18L100.523 14.8066L101.573 13.9668L103.937 18H102.262ZM109.852 13.8252V14.8799H106.111V13.8252H109.852ZM106.478 10.8906V18H105.135V10.8906H106.478ZM110.848 10.8906V18H109.505V10.8906H110.848ZM115.63 11.9697L113.604 18H112.183L114.839 10.8906H115.747L115.63 11.9697ZM117.324 18L115.288 11.9697L115.166 10.8906H116.079L118.75 18H117.324ZM117.231 15.3584V16.418H113.418V15.3584H117.231ZM128.603 16.9453V18H123.422V16.9453H128.603ZM123.788 16.9453V19.7432H122.514L122.45 16.9453H123.788ZM129.604 16.9453L129.501 19.748H128.256V16.9453H129.604ZM127.768 10.8906V11.9502H124.418V10.8906H127.768ZM128.759 10.8906V18H127.421V10.8906H128.759ZM124.203 10.8906H125.546L125.365 13.7812C125.339 14.2467 125.29 14.6618 125.219 15.0264C125.15 15.391 125.066 15.7148 124.965 15.998C124.864 16.2812 124.752 16.5303 124.628 16.7451C124.507 16.9567 124.379 17.1406 124.242 17.2969C124.109 17.4531 123.97 17.5882 123.827 17.7021C123.687 17.8128 123.549 17.9121 123.412 18H122.665V16.9453H122.987C123.082 16.8639 123.181 16.75 123.285 16.6035C123.393 16.457 123.495 16.2633 123.593 16.0225C123.694 15.7816 123.782 15.4772 123.856 15.1094C123.931 14.7415 123.985 14.2988 124.018 13.7812L124.203 10.8906ZM136.583 14.2646V14.6309C136.583 15.168 136.511 15.6514 136.368 16.0811C136.225 16.5075 136.021 16.8704 135.758 17.1699C135.494 17.4694 135.18 17.6989 134.815 17.8584C134.451 18.0179 134.046 18.0977 133.6 18.0977C133.16 18.0977 132.757 18.0179 132.389 17.8584C132.024 17.6989 131.708 17.4694 131.441 17.1699C131.174 16.8704 130.968 16.5075 130.821 16.0811C130.675 15.6514 130.602 15.168 130.602 14.6309V14.2646C130.602 13.7243 130.675 13.2409 130.821 12.8145C130.968 12.388 131.173 12.0251 131.437 11.7256C131.7 11.4229 132.014 11.1917 132.379 11.0322C132.747 10.8727 133.15 10.793 133.59 10.793C134.036 10.793 134.441 10.8727 134.806 11.0322C135.17 11.1917 135.484 11.4229 135.748 11.7256C136.015 12.0251 136.22 12.388 136.363 12.8145C136.51 13.2409 136.583 13.7243 136.583 14.2646ZM135.226 14.6309V14.2549C135.226 13.8675 135.19 13.5273 135.118 13.2344C135.047 12.9382 134.941 12.6891 134.801 12.4873C134.661 12.2855 134.488 12.1341 134.283 12.0332C134.078 11.929 133.847 11.877 133.59 11.877C133.329 11.877 133.098 11.929 132.896 12.0332C132.698 12.1341 132.529 12.2855 132.389 12.4873C132.249 12.6891 132.141 12.9382 132.066 13.2344C131.995 13.5273 131.959 13.8675 131.959 14.2549V14.6309C131.959 15.015 131.995 15.3551 132.066 15.6514C132.141 15.9476 132.249 16.1982 132.389 16.4033C132.532 16.6051 132.704 16.7581 132.906 16.8623C133.108 16.9665 133.339 17.0186 133.6 17.0186C133.86 17.0186 134.091 16.9665 134.293 16.8623C134.495 16.7581 134.664 16.6051 134.801 16.4033C134.941 16.1982 135.047 15.9476 135.118 15.6514C135.19 15.3551 135.226 15.015 135.226 14.6309ZM142.381 15.6611H143.724C143.688 16.1364 143.556 16.5579 143.328 16.9258C143.1 17.2904 142.783 17.5768 142.376 17.7852C141.969 17.9935 141.476 18.0977 140.896 18.0977C140.451 18.0977 140.049 18.0195 139.69 17.8633C139.336 17.7038 139.031 17.4775 138.777 17.1846C138.527 16.8883 138.335 16.5335 138.201 16.1201C138.068 15.7035 138.001 15.2363 138.001 14.7188V14.1768C138.001 13.6592 138.069 13.1921 138.206 12.7754C138.343 12.3587 138.538 12.0039 138.792 11.7109C139.049 11.4147 139.357 11.1868 139.715 11.0273C140.076 10.8678 140.48 10.7881 140.926 10.7881C141.505 10.7881 141.995 10.8955 142.396 11.1104C142.796 11.3219 143.107 11.6133 143.328 11.9844C143.549 12.3555 143.683 12.7819 143.729 13.2637H142.386C142.36 12.9642 142.295 12.7103 142.19 12.502C142.09 12.2936 141.937 12.1357 141.731 12.0283C141.53 11.9176 141.261 11.8623 140.926 11.8623C140.665 11.8623 140.436 11.9111 140.237 12.0088C140.042 12.1064 139.879 12.2529 139.749 12.4482C139.619 12.6403 139.521 12.8812 139.456 13.1709C139.391 13.4574 139.358 13.7894 139.358 14.167V14.7188C139.358 15.0801 139.388 15.404 139.446 15.6904C139.505 15.9769 139.596 16.2194 139.72 16.418C139.843 16.6165 140.003 16.7679 140.198 16.8721C140.394 16.9762 140.626 17.0283 140.896 17.0283C141.225 17.0283 141.492 16.9762 141.697 16.8721C141.906 16.7679 142.063 16.6149 142.171 16.4131C142.282 16.2113 142.352 15.9606 142.381 15.6611ZM148.169 10.8906V18H146.831V10.8906H148.169ZM150.376 10.8906V11.9502H144.648V10.8906H150.376ZM154.099 11.9697L152.072 18H150.651L153.308 10.8906H154.216L154.099 11.9697ZM155.793 18L153.757 11.9697L153.635 10.8906H154.548L157.219 18H155.793ZM155.7 15.3584V16.418H151.887V15.3584H155.7ZM161.176 14.8311H159.359L159.35 13.8838H160.907C161.174 13.8838 161.397 13.8464 161.576 13.7715C161.755 13.6966 161.89 13.5876 161.981 13.4443C162.076 13.3011 162.123 13.127 162.123 12.9219C162.123 12.694 162.079 12.5085 161.991 12.3652C161.907 12.222 161.773 12.1178 161.591 12.0527C161.409 11.9844 161.177 11.9502 160.897 11.9502H159.794V18H158.451V10.8906H160.897C161.301 10.8906 161.661 10.9297 161.977 11.0078C162.296 11.0827 162.566 11.1999 162.787 11.3594C163.008 11.5189 163.176 11.7191 163.29 11.96C163.407 12.2008 163.466 12.4873 163.466 12.8193C163.466 13.1123 163.397 13.3825 163.261 13.6299C163.127 13.874 162.921 14.0726 162.641 14.2256C162.364 14.3786 162.012 14.4665 161.586 14.4893L161.176 14.8311ZM161.117 18H158.964L159.525 16.9453H161.117C161.384 16.9453 161.604 16.9014 161.776 16.8135C161.952 16.7256 162.082 16.6051 162.167 16.4521C162.255 16.2959 162.299 16.1169 162.299 15.915C162.299 15.6937 162.26 15.5016 162.182 15.3389C162.107 15.1761 161.986 15.0508 161.82 14.9629C161.658 14.875 161.443 14.8311 161.176 14.8311H159.779L159.789 13.8838H161.566L161.874 14.25C162.284 14.2533 162.618 14.3346 162.875 14.4941C163.135 14.6536 163.327 14.8587 163.451 15.1094C163.575 15.36 163.637 15.6302 163.637 15.9199C163.637 16.3757 163.537 16.7581 163.339 17.0674C163.144 17.3766 162.857 17.6094 162.479 17.7656C162.105 17.9219 161.651 18 161.117 18ZM166.656 10.8906V18H165.313V10.8906H166.656ZM170.89 10.8906L168.082 15.002H166.319L166.144 13.8203H167.354L169.254 10.8906H170.89ZM169.508 18L167.364 14.7871L168.268 13.7959L171.114 18H169.508ZM175.081 11.9697L173.055 18H171.634L174.29 10.8906H175.198L175.081 11.9697ZM176.775 18L174.739 11.9697L174.617 10.8906H175.53L178.201 18H176.775ZM176.683 15.3584V16.418H172.869V15.3584H176.683ZM180.552 16.8379L180.542 17.7314C180.542 18.0798 180.456 18.4329 180.283 18.791C180.111 19.1491 179.888 19.4453 179.614 19.6797L178.931 19.3037C179.019 19.1572 179.1 19.0091 179.175 18.8594C179.253 18.7096 179.315 18.5469 179.36 18.3711C179.409 18.1986 179.434 18.0049 179.434 17.79V16.8379H180.552ZM188.085 10.8906V18H186.747V10.8906H188.085ZM190.292 10.8906V11.9502H184.564V10.8906H190.292ZM197.306 14.2646V14.6309C197.306 15.168 197.234 15.6514 197.091 16.0811C196.948 16.5075 196.744 16.8704 196.48 17.1699C196.217 17.4694 195.903 17.6989 195.538 17.8584C195.174 18.0179 194.768 18.0977 194.322 18.0977C193.883 18.0977 193.479 18.0179 193.111 17.8584C192.747 17.6989 192.431 17.4694 192.164 17.1699C191.897 16.8704 191.69 16.5075 191.544 16.0811C191.397 15.6514 191.324 15.168 191.324 14.6309V14.2646C191.324 13.7243 191.397 13.2409 191.544 12.8145C191.69 12.388 191.896 12.0251 192.159 11.7256C192.423 11.4229 192.737 11.1917 193.102 11.0322C193.469 10.8727 193.873 10.793 194.312 10.793C194.758 10.793 195.164 10.8727 195.528 11.0322C195.893 11.1917 196.207 11.4229 196.471 11.7256C196.738 12.0251 196.943 12.388 197.086 12.8145C197.232 13.2409 197.306 13.7243 197.306 14.2646ZM195.948 14.6309V14.2549C195.948 13.8675 195.912 13.5273 195.841 13.2344C195.769 12.9382 195.663 12.6891 195.523 12.4873C195.383 12.2855 195.211 12.1341 195.006 12.0332C194.801 11.929 194.57 11.877 194.312 11.877C194.052 11.877 193.821 11.929 193.619 12.0332C193.421 12.1341 193.251 12.2855 193.111 12.4873C192.971 12.6891 192.864 12.9382 192.789 13.2344C192.717 13.5273 192.682 13.8675 192.682 14.2549V14.6309C192.682 15.015 192.717 15.3551 192.789 15.6514C192.864 15.9476 192.971 16.1982 193.111 16.4033C193.255 16.6051 193.427 16.7581 193.629 16.8623C193.831 16.9665 194.062 17.0186 194.322 17.0186C194.583 17.0186 194.814 16.9665 195.016 16.8623C195.217 16.7581 195.387 16.6051 195.523 16.4033C195.663 16.1982 195.769 15.9476 195.841 15.6514C195.912 15.3551 195.948 15.015 195.948 14.6309Z" fill="#1A1C23"/>
<path d="M27.626 16.9453V18H23.8467V16.9453H27.626ZM24.2568 10.8906V18H22.9141V10.8906H24.2568ZM27.1328 13.8252V14.8555H23.8467V13.8252H27.1328ZM27.6113 10.8906V11.9502H23.8467V10.8906H27.6113ZM33.2188 15.6611H34.5615C34.5257 16.1364 34.3939 16.5579 34.166 16.9258C33.9382 17.2904 33.6208 17.5768 33.2139 17.7852C32.807 17.9935 32.3138 18.0977 31.7344 18.0977C31.2884 18.0977 30.8864 18.0195 30.5283 17.8633C30.1735 17.7038 29.8691 17.4775 29.6152 17.1846C29.3646 16.8883 29.1725 16.5335 29.0391 16.1201C28.9056 15.7035 28.8389 15.2363 28.8389 14.7188V14.1768C28.8389 13.6592 28.9072 13.1921 29.0439 12.7754C29.1807 12.3587 29.376 12.0039 29.6299 11.7109C29.887 11.4147 30.1947 11.1868 30.5527 11.0273C30.9141 10.8678 31.3177 10.7881 31.7637 10.7881C32.3431 10.7881 32.833 10.8955 33.2334 11.1104C33.6338 11.3219 33.9447 11.6133 34.166 11.9844C34.3874 12.3555 34.5208 12.7819 34.5664 13.2637H33.2236C33.1976 12.9642 33.1325 12.7103 33.0283 12.502C32.9274 12.2936 32.7744 12.1357 32.5693 12.0283C32.3675 11.9176 32.099 11.8623 31.7637 11.8623C31.5033 11.8623 31.2738 11.9111 31.0752 12.0088C30.8799 12.1064 30.7171 12.2529 30.5869 12.4482C30.4567 12.6403 30.359 12.8812 30.2939 13.1709C30.2288 13.4574 30.1963 13.7894 30.1963 14.167V14.7188C30.1963 15.0801 30.2256 15.404 30.2842 15.6904C30.3428 15.9769 30.4339 16.2194 30.5576 16.418C30.6813 16.6165 30.8408 16.7679 31.0361 16.8721C31.2314 16.9762 31.4642 17.0283 31.7344 17.0283C32.0632 17.0283 32.3301 16.9762 32.5352 16.8721C32.7435 16.7679 32.9014 16.6149 33.0088 16.4131C33.1195 16.2113 33.1895 15.9606 33.2188 15.6611ZM40.8037 10.8906V11.9502H37.332V10.8906H40.8037ZM41.7949 10.8906V18H40.4473V10.8906H41.7949ZM37.1172 10.8906H38.4551L38.2793 14.4404C38.2533 14.9645 38.2061 15.4235 38.1377 15.8174C38.0693 16.2113 37.9766 16.5482 37.8594 16.8281C37.7422 17.1048 37.5957 17.3294 37.4199 17.502C37.2441 17.6745 37.0358 17.8014 36.7949 17.8828C36.5573 17.9609 36.2806 18 35.9648 18H35.6279V16.9453L35.8184 16.9258C35.9844 16.9128 36.1276 16.8721 36.248 16.8037C36.3717 16.7354 36.4775 16.6328 36.5654 16.4961C36.6533 16.3561 36.7249 16.1771 36.7803 15.959C36.8389 15.7409 36.8844 15.4756 36.917 15.1631C36.9528 14.8506 36.9788 14.4844 36.9951 14.0645L37.1172 10.8906ZM44.9854 15.8516L47.9883 10.8906H49.3359V18H47.9883V13.0391L44.9854 18H43.6426V10.8906H44.9854V15.8516ZM56.918 14.8311H55.1016L55.0918 13.8838H56.6494C56.9163 13.8838 57.1393 13.8464 57.3184 13.7715C57.4974 13.6966 57.6325 13.5876 57.7236 13.4443C57.818 13.3011 57.8652 13.127 57.8652 12.9219C57.8652 12.694 57.8213 12.5085 57.7334 12.3652C57.6488 12.222 57.5153 12.1178 57.333 12.0527C57.1507 11.9844 56.9196 11.9502 56.6396 11.9502H55.5361V18H54.1934V10.8906H56.6396C57.0433 10.8906 57.403 10.9297 57.7188 11.0078C58.0378 11.0827 58.3079 11.1999 58.5293 11.3594C58.7507 11.5189 58.9183 11.7191 59.0322 11.96C59.1494 12.2008 59.208 12.4873 59.208 12.8193C59.208 13.1123 59.1396 13.3825 59.0029 13.6299C58.8695 13.874 58.6628 14.0726 58.3828 14.2256C58.1061 14.3786 57.7546 14.4665 57.3281 14.4893L56.918 14.8311ZM56.8594 18H54.7061L55.2676 16.9453H56.8594C57.1263 16.9453 57.346 16.9014 57.5186 16.8135C57.6943 16.7256 57.8245 16.6051 57.9092 16.4521C57.9971 16.2959 58.041 16.1169 58.041 15.915C58.041 15.6937 58.002 15.5016 57.9238 15.3389C57.849 15.1761 57.7285 15.0508 57.5625 14.9629C57.3997 14.875 57.1849 14.8311 56.918 14.8311H55.5215L55.5312 13.8838H57.3086L57.6162 14.25C58.0264 14.2533 58.36 14.3346 58.6172 14.4941C58.8776 14.6536 59.0697 14.8587 59.1934 15.1094C59.3171 15.36 59.3789 15.6302 59.3789 15.9199C59.3789 16.3757 59.2796 16.7581 59.0811 17.0674C58.8857 17.3766 58.5993 17.6094 58.2217 17.7656C57.8473 17.9219 57.3932 18 56.8594 18ZM63.8682 11.9697L61.8418 18H60.4209L63.0771 10.8906H63.9854L63.8682 11.9697ZM65.5625 18L63.5264 11.9697L63.4043 10.8906H64.3174L66.9883 18H65.5625ZM65.4697 15.3584V16.418H61.6562V15.3584H65.4697ZM68.8066 10.8906H69.9688L71.9121 16.2422L73.8506 10.8906H75.0176L72.376 18H71.4434L68.8066 10.8906ZM68.2207 10.8906H69.3584L69.5635 15.8076V18H68.2207V10.8906ZM74.4609 10.8906H75.6035V18H74.2607V15.8076L74.4609 10.8906ZM85.1777 13.8252V14.8799H81.4375V13.8252H85.1777ZM81.8037 10.8906V18H80.4609V10.8906H81.8037ZM86.1738 10.8906V18H84.8311V10.8906H86.1738ZM90.2676 15.4756L92.0449 10.8906H93.5049L91.0537 16.667C90.9723 16.8525 90.8796 17.0316 90.7754 17.2041C90.6712 17.3766 90.5459 17.5312 90.3994 17.668C90.2562 17.8014 90.082 17.9072 89.877 17.9854C89.6751 18.0635 89.431 18.1025 89.1445 18.1025C89.0697 18.1025 88.9801 18.0993 88.876 18.0928C88.7718 18.0895 88.6921 18.0846 88.6367 18.0781V17.0234C88.6758 17.0332 88.7393 17.0397 88.8271 17.043C88.9183 17.0462 88.9834 17.0479 89.0225 17.0479C89.2113 17.0479 89.361 17.0186 89.4717 16.96C89.5856 16.8981 89.6751 16.8151 89.7402 16.7109C89.8086 16.6035 89.8688 16.4814 89.9209 16.3447L90.2676 15.4756ZM89.0078 10.8906L90.7119 14.6162L91.1123 16.0664L90.0918 16.0957L87.5527 10.8906H89.0078ZM97.0615 14.9971L94.3857 10.8906H96.041L97.7061 13.8203H98.9609L98.7803 14.9971H97.0615ZM97.7109 14.8066L95.9385 18H94.2637L96.666 13.9668L97.7109 14.8066ZM99.7959 10.8906V18H98.458V10.8906H99.7959ZM103.814 10.8906L101.168 14.9971H99.4639L99.2832 13.8203H100.523L102.154 10.8906H103.814ZM102.262 18L100.523 14.8066L101.573 13.9668L103.937 18H102.262ZM109.852 13.8252V14.8799H106.111V13.8252H109.852ZM106.478 10.8906V18H105.135V10.8906H106.478ZM110.848 10.8906V18H109.505V10.8906H110.848ZM115.63 11.9697L113.604 18H112.183L114.839 10.8906H115.747L115.63 11.9697ZM117.324 18L115.288 11.9697L115.166 10.8906H116.079L118.75 18H117.324ZM117.231 15.3584V16.418H113.418V15.3584H117.231ZM128.603 16.9453V18H123.422V16.9453H128.603ZM123.788 16.9453V19.7432H122.514L122.45 16.9453H123.788ZM129.604 16.9453L129.501 19.748H128.256V16.9453H129.604ZM127.768 10.8906V11.9502H124.418V10.8906H127.768ZM128.759 10.8906V18H127.421V10.8906H128.759ZM124.203 10.8906H125.546L125.365 13.7812C125.339 14.2467 125.29 14.6618 125.219 15.0264C125.15 15.391 125.066 15.7148 124.965 15.998C124.864 16.2812 124.752 16.5303 124.628 16.7451C124.507 16.9567 124.379 17.1406 124.242 17.2969C124.109 17.4531 123.97 17.5882 123.827 17.7021C123.687 17.8128 123.549 17.9121 123.412 18H122.665V16.9453H122.987C123.082 16.8639 123.181 16.75 123.285 16.6035C123.393 16.457 123.495 16.2633 123.593 16.0225C123.694 15.7816 123.782 15.4772 123.856 15.1094C123.931 14.7415 123.985 14.2988 124.018 13.7812L124.203 10.8906ZM136.583 14.2646V14.6309C136.583 15.168 136.511 15.6514 136.368 16.0811C136.225 16.5075 136.021 16.8704 135.758 17.1699C135.494 17.4694 135.18 17.6989 134.815 17.8584C134.451 18.0179 134.046 18.0977 133.6 18.0977C133.16 18.0977 132.757 18.0179 132.389 17.8584C132.024 17.6989 131.708 17.4694 131.441 17.1699C131.174 16.8704 130.968 16.5075 130.821 16.0811C130.675 15.6514 130.602 15.168 130.602 14.6309V14.2646C130.602 13.7243 130.675 13.2409 130.821 12.8145C130.968 12.388 131.173 12.0251 131.437 11.7256C131.7 11.4229 132.014 11.1917 132.379 11.0322C132.747 10.8727 133.15 10.793 133.59 10.793C134.036 10.793 134.441 10.8727 134.806 11.0322C135.17 11.1917 135.484 11.4229 135.748 11.7256C136.015 12.0251 136.22 12.388 136.363 12.8145C136.51 13.2409 136.583 13.7243 136.583 14.2646ZM135.226 14.6309V14.2549C135.226 13.8675 135.19 13.5273 135.118 13.2344C135.047 12.9382 134.941 12.6891 134.801 12.4873C134.661 12.2855 134.488 12.1341 134.283 12.0332C134.078 11.929 133.847 11.877 133.59 11.877C133.329 11.877 133.098 11.929 132.896 12.0332C132.698 12.1341 132.529 12.2855 132.389 12.4873C132.249 12.6891 132.141 12.9382 132.066 13.2344C131.995 13.5273 131.959 13.8675 131.959 14.2549V14.6309C131.959 15.015 131.995 15.3551 132.066 15.6514C132.141 15.9476 132.249 16.1982 132.389 16.4033C132.532 16.6051 132.704 16.7581 132.906 16.8623C133.108 16.9665 133.339 17.0186 133.6 17.0186C133.86 17.0186 134.091 16.9665 134.293 16.8623C134.495 16.7581 134.664 16.6051 134.801 16.4033C134.941 16.1982 135.047 15.9476 135.118 15.6514C135.19 15.3551 135.226 15.015 135.226 14.6309ZM142.381 15.6611H143.724C143.688 16.1364 143.556 16.5579 143.328 16.9258C143.1 17.2904 142.783 17.5768 142.376 17.7852C141.969 17.9935 141.476 18.0977 140.896 18.0977C140.451 18.0977 140.049 18.0195 139.69 17.8633C139.336 17.7038 139.031 17.4775 138.777 17.1846C138.527 16.8883 138.335 16.5335 138.201 16.1201C138.068 15.7035 138.001 15.2363 138.001 14.7188V14.1768C138.001 13.6592 138.069 13.1921 138.206 12.7754C138.343 12.3587 138.538 12.0039 138.792 11.7109C139.049 11.4147 139.357 11.1868 139.715 11.0273C140.076 10.8678 140.48 10.7881 140.926 10.7881C141.505 10.7881 141.995 10.8955 142.396 11.1104C142.796 11.3219 143.107 11.6133 143.328 11.9844C143.549 12.3555 143.683 12.7819 143.729 13.2637H142.386C142.36 12.9642 142.295 12.7103 142.19 12.502C142.09 12.2936 141.937 12.1357 141.731 12.0283C141.53 11.9176 141.261 11.8623 140.926 11.8623C140.665 11.8623 140.436 11.9111 140.237 12.0088C140.042 12.1064 139.879 12.2529 139.749 12.4482C139.619 12.6403 139.521 12.8812 139.456 13.1709C139.391 13.4574 139.358 13.7894 139.358 14.167V14.7188C139.358 15.0801 139.388 15.404 139.446 15.6904C139.505 15.9769 139.596 16.2194 139.72 16.418C139.843 16.6165 140.003 16.7679 140.198 16.8721C140.394 16.9762 140.626 17.0283 140.896 17.0283C141.225 17.0283 141.492 16.9762 141.697 16.8721C141.906 16.7679 142.063 16.6149 142.171 16.4131C142.282 16.2113 142.352 15.9606 142.381 15.6611ZM148.169 10.8906V18H146.831V10.8906H148.169ZM150.376 10.8906V11.9502H144.648V10.8906H150.376ZM154.099 11.9697L152.072 18H150.651L153.308 10.8906H154.216L154.099 11.9697ZM155.793 18L153.757 11.9697L153.635 10.8906H154.548L157.219 18H155.793ZM155.7 15.3584V16.418H151.887V15.3584H155.7ZM161.176 14.8311H159.359L159.35 13.8838H160.907C161.174 13.8838 161.397 13.8464 161.576 13.7715C161.755 13.6966 161.89 13.5876 161.981 13.4443C162.076 13.3011 162.123 13.127 162.123 12.9219C162.123 12.694 162.079 12.5085 161.991 12.3652C161.907 12.222 161.773 12.1178 161.591 12.0527C161.409 11.9844 161.177 11.9502 160.897 11.9502H159.794V18H158.451V10.8906H160.897C161.301 10.8906 161.661 10.9297 161.977 11.0078C162.296 11.0827 162.566 11.1999 162.787 11.3594C163.008 11.5189 163.176 11.7191 163.29 11.96C163.407 12.2008 163.466 12.4873 163.466 12.8193C163.466 13.1123 163.397 13.3825 163.261 13.6299C163.127 13.874 162.921 14.0726 162.641 14.2256C162.364 14.3786 162.012 14.4665 161.586 14.4893L161.176 14.8311ZM161.117 18H158.964L159.525 16.9453H161.117C161.384 16.9453 161.604 16.9014 161.776 16.8135C161.952 16.7256 162.082 16.6051 162.167 16.4521C162.255 16.2959 162.299 16.1169 162.299 15.915C162.299 15.6937 162.26 15.5016 162.182 15.3389C162.107 15.1761 161.986 15.0508 161.82 14.9629C161.658 14.875 161.443 14.8311 161.176 14.8311H159.779L159.789 13.8838H161.566L161.874 14.25C162.284 14.2533 162.618 14.3346 162.875 14.4941C163.135 14.6536 163.327 14.8587 163.451 15.1094C163.575 15.36 163.637 15.6302 163.637 15.9199C163.637 16.3757 163.537 16.7581 163.339 17.0674C163.144 17.3766 162.857 17.6094 162.479 17.7656C162.105 17.9219 161.651 18 161.117 18ZM166.656 10.8906V18H165.313V10.8906H166.656ZM170.89 10.8906L168.082 15.002H166.319L166.144 13.8203H167.354L169.254 10.8906H170.89ZM169.508 18L167.364 14.7871L168.268 13.7959L171.114 18H169.508ZM175.081 11.9697L173.055 18H171.634L174.29 10.8906H175.198L175.081 11.9697ZM176.775 18L174.739 11.9697L174.617 10.8906H175.53L178.201 18H176.775ZM176.683 15.3584V16.418H172.869V15.3584H176.683ZM180.552 16.8379L180.542 17.7314C180.542 18.0798 180.456 18.4329 180.283 18.791C180.111 19.1491 179.888 19.4453 179.614 19.6797L178.931 19.3037C179.019 19.1572 179.1 19.0091 179.175 18.8594C179.253 18.7096 179.315 18.5469 179.36 18.3711C179.409 18.1986 179.434 18.0049 179.434 17.79V16.8379H180.552ZM188.085 10.8906V18H186.747V10.8906H188.085ZM190.292 10.8906V11.9502H184.564V10.8906H190.292ZM197.306 14.2646V14.6309C197.306 15.168 197.234 15.6514 197.091 16.0811C196.948 16.5075 196.744 16.8704 196.48 17.1699C196.217 17.4694 195.903 17.6989 195.538 17.8584C195.174 18.0179 194.768 18.0977 194.322 18.0977C193.883 18.0977 193.479 18.0179 193.111 17.8584C192.747 17.6989 192.431 17.4694 192.164 17.1699C191.897 16.8704 191.69 16.5075 191.544 16.0811C191.397 15.6514 191.324 15.168 191.324 14.6309V14.2646C191.324 13.7243 191.397 13.2409 191.544 12.8145C191.69 12.388 191.896 12.0251 192.159 11.7256C192.423 11.4229 192.737 11.1917 193.102 11.0322C193.469 10.8727 193.873 10.793 194.312 10.793C194.758 10.793 195.164 10.8727 195.528 11.0322C195.893 11.1917 196.207 11.4229 196.471 11.7256C196.738 12.0251 196.943 12.388 197.086 12.8145C197.232 13.2409 197.306 13.7243 197.306 14.2646ZM195.948 14.6309V14.2549C195.948 13.8675 195.912 13.5273 195.841 13.2344C195.769 12.9382 195.663 12.6891 195.523 12.4873C195.383 12.2855 195.211 12.1341 195.006 12.0332C194.801 11.929 194.57 11.877 194.312 11.877C194.052 11.877 193.821 11.929 193.619 12.0332C193.421 12.1341 193.251 12.2855 193.111 12.4873C192.971 12.6891 192.864 12.9382 192.789 13.2344C192.717 13.5273 192.682 13.8675 192.682 14.2549V14.6309C192.682 15.015 192.717 15.3551 192.789 15.6514C192.864 15.9476 192.971 16.1982 193.111 16.4033C193.255 16.6051 193.427 16.7581 193.629 16.8623C193.831 16.9665 194.062 17.0186 194.322 17.0186C194.583 17.0186 194.814 16.9665 195.016 16.8623C195.217 16.7581 195.387 16.6051 195.523 16.4033C195.663 16.1982 195.769 15.9476 195.841 15.6514C195.912 15.3551 195.948 15.015 195.948 14.6309Z" fill="#1A1C23"/>
</svg>
