<svg width="24" height="24" viewBox="0 0 24 24" fill="none" xmlns="http://www.w3.org/2000/svg">
<path fill-rule="evenodd" clip-rule="evenodd" d="M8.99922 22.8002C9.99334 22.8002 10.7992 21.9943 10.7992 21.0002C10.7992 20.0061 9.99334 19.2002 8.99922 19.2002C8.0051 19.2002 7.19922 20.0061 7.19922 21.0002C7.19922 21.9943 8.0051 22.8002 8.99922 22.8002Z" fill="#A9A9A9"/>
<path fill-rule="evenodd" clip-rule="evenodd" d="M17.3996 22.8002C18.3937 22.8002 19.1996 21.9943 19.1996 21.0002C19.1996 20.0061 18.3937 19.2002 17.3996 19.2002C16.4055 19.2002 15.5996 20.0061 15.5996 21.0002C15.5996 21.9943 16.4055 22.8002 17.3996 22.8002Z" fill="#A9A9A9"/>
<path fill-rule="evenodd" clip-rule="evenodd" d="M4.12959 4.5002H1.19922V2.7002H4.79922C5.19667 2.7002 5.54706 2.9609 5.66126 3.34158L8.74815 13.6312C8.9385 14.2657 9.52248 14.7002 10.1849 14.7002H17.3889C18.0586 14.7002 18.6472 14.2562 18.8312 13.6123L20.4061 8.1002H12.5992V6.3002H21.5992C21.8816 6.3002 22.1476 6.43276 22.3178 6.65822C22.4878 6.88368 22.5422 7.1759 22.4645 7.44744L20.5619 14.1068C20.1572 15.5235 18.8623 16.5002 17.3889 16.5002H10.1849C8.72759 16.5002 7.44282 15.5443 7.02407 14.1484L4.12959 4.5002Z" fill="#A9A9A9"/>
</svg>
