<svg width="102" height="32" viewBox="0 0 102 32" fill="none" xmlns="http://www.w3.org/2000/svg">
<path d="M15.8926 22.3926L19.6359 26.1465C20.621 25.7514 21.5404 25.2245 22.3284 24.5001L23.0508 23.9073C23.2478 23.7756 23.3792 23.578 23.5105 23.4463L22.5255 22.4584H15.8926V22.3926Z" fill="#1A56FF"/>
<path d="M27.0558 26.9365C26.7931 27.2 26.5961 27.3975 26.3334 27.661C25.414 28.5171 24.3633 29.2416 23.3125 29.7685L24.4289 30.8881L25.1513 31.6125H31.7842L27.9752 27.7927L27.0558 26.9365Z" fill="#1A56FF"/>
<path d="M15.9583 26.9364C12.806 26.9364 10.2448 25.8826 8.27467 23.7751C6.23884 21.6018 5.18808 18.9674 5.18808 15.8062C5.18808 12.6449 6.23884 10.0106 8.27467 7.83723C10.3105 5.72974 12.8717 4.67599 15.9583 4.67599C19.0449 4.67599 21.6061 5.72974 23.6419 7.83723C25.6777 10.0106 26.7285 12.6449 26.7285 15.8062C26.7285 16.7941 26.5971 17.7161 26.4001 18.5723C25.9404 20.4163 24.9553 22.1286 23.5762 23.4458L24.43 24.302L27.1225 27.0022C28.3703 25.7509 29.421 24.3679 30.1434 22.7872C31.0628 20.9432 31.6539 18.9016 31.7195 16.8599C31.7195 16.5306 31.7195 16.2013 31.7195 15.872C31.7195 11.3278 30.2091 7.57379 27.1225 4.54427C24.1016 1.51476 20.3583 0 15.8269 0C11.3613 0 7.55227 1.51476 4.53136 4.54427C1.51045 7.57379 0 11.3278 0 15.872C0 20.3504 1.51045 24.1703 4.53136 27.1998C7.55227 30.2293 11.2956 31.7441 15.8269 31.7441C16.5493 31.7441 17.2717 31.6782 17.9284 31.6124C19.7673 31.4148 21.5404 30.822 23.1822 29.9L19.5702 26.2778C18.4538 26.6729 17.2717 26.9364 15.9583 26.9364Z" fill="#1A56FF"/>
<path d="M57.3982 13.5617C57.3982 11.1249 56.5445 9.08326 54.9027 7.43678C53.2609 5.79031 51.225 5 48.7952 5C46.3653 5 44.3295 5.79031 42.6877 7.43678C41.0459 9.08326 40.2578 11.1249 40.2578 13.5617C40.2578 15.9985 41.0459 18.0401 42.6877 19.6866C44.3295 21.333 46.3653 22.1234 48.7952 22.1234C50.5683 22.1234 52.0788 21.6623 53.4579 20.8062L54.3116 21.6623H57.8579L55.3624 19.1597C56.7415 17.5791 57.3982 15.735 57.3982 13.5617ZM53.5236 17.1839L52.5385 16.196H48.9922L51.6191 18.8304C50.7653 19.2914 49.8459 19.489 48.8608 19.489C47.219 19.489 45.8399 18.8963 44.7235 17.7767C43.6071 16.5912 43.0817 15.2082 43.0817 13.4958C43.0817 11.7835 43.6071 10.3346 44.7235 9.21498C45.8399 8.09538 47.219 7.50264 48.8608 7.50264C50.5026 7.50264 51.8818 8.09538 52.9982 9.21498C54.1146 10.4004 54.64 11.7835 54.64 13.4958C54.64 14.9447 54.2459 16.1302 53.5236 17.1839Z" fill="#1A1C23"/>
<path d="M68.6938 16.525C68.6938 17.447 68.3655 18.2373 67.7744 18.8301C67.1177 19.4228 66.3296 19.7521 65.4102 19.7521C64.5565 19.7521 63.7684 19.4228 63.1774 18.8301C62.5864 18.1715 62.258 17.447 62.258 16.525V9.54395H59.8281V17.2495C59.8281 18.6325 60.2878 19.7521 61.2072 20.6741C62.1266 21.5961 63.3087 22.0572 64.6878 22.0572C66.3953 22.0572 67.7088 21.3986 68.6938 20.0155V21.7937H71.1237V9.54395H68.6938V16.525Z" fill="#1A1C23"/>
<path d="M76.4299 9H74V21.2498H76.4299V9Z" fill="#1A1C23"/>
<path d="M83.2687 6.5H80.8388V8.93679H79V11.0443H80.8388V17.3667C80.8388 18.4205 81.2329 19.3425 81.9552 20.067C82.6776 20.7914 83.6627 21.1207 84.7135 21.1207H86.4866V18.7498H84.9105C84.4508 18.7498 84.0567 18.5522 83.7284 18.2229C83.4 17.8936 83.2687 17.4985 83.2687 16.9716V10.9126H86.4866V8.80507H83.2687V6.5Z" fill="#1A1C23"/>
<path d="M98.5881 9.06586L94.9761 17.9568L91.4955 9.06586H89L93.794 20.9864L93.2687 22.3035C93.006 22.9621 92.6776 23.489 92.2179 23.7524C91.7582 24.0817 91.2328 24.2134 90.5104 24.2134H89.9851V26.5844H90.5104C91.7582 26.5844 92.7433 26.3209 93.5314 25.7282C94.3194 25.2013 94.9761 24.2793 95.4358 23.0938L101.215 9H98.5881V9.06586Z" fill="#1A1C23"/>
<path d="M76.4299 6H74V7.58062H76.4299V6Z" fill="#1A1C23"/>
</svg>
