<svg width="32" height="32" viewBox="0 0 32 32" fill="none" xmlns="http://www.w3.org/2000/svg">
<g clip-path="url(#clip0_0_3897)">
<path d="M0 16C0 24.8366 7.16344 32 16 32C24.8366 32 32 24.8366 32 16C32 7.16344 24.8366 0 16 0C7.16344 0 0 7.16344 0 16Z" fill="#F4F5F6"/>
<path d="M24.4829 12.1896L24.4778 12.1695C24.0711 10.5251 22.2374 8.7607 20.5534 8.39362L20.5344 8.38971C17.8106 7.8701 15.0488 7.8701 12.3256 8.38971L12.3061 8.39362C10.6226 8.7607 8.78892 10.5251 8.38161 12.1695L8.37714 12.1896C7.87429 14.4859 7.87429 16.8147 8.37714 19.111L8.38161 19.1311C8.77154 20.7053 10.4687 22.3887 12.0898 22.8516V24.6871C12.0898 25.3514 12.8994 25.6777 13.3598 25.1984L15.2195 23.2652C15.6229 23.2878 16.0264 23.3004 16.43 23.3004C17.8011 23.3004 19.1728 23.1708 20.5344 22.9109L20.5534 22.907C22.2374 22.54 24.0711 20.7755 24.4778 19.1312L24.4829 19.1111C24.9857 16.8147 24.9857 14.4859 24.4829 12.1896ZM23.0112 18.778C22.7397 19.8508 21.3473 21.1844 20.241 21.4308C18.7928 21.7062 17.3331 21.824 15.8748 21.7836C15.8458 21.7828 15.8179 21.794 15.7977 21.8148C15.5907 22.0272 14.4398 23.2087 14.4398 23.2087L12.9955 24.691C12.8899 24.8011 12.7044 24.7262 12.7044 24.5742V21.5335C12.7044 21.4833 12.6686 21.4406 12.6192 21.431C12.619 21.4309 12.6187 21.4308 12.6184 21.4308C11.5121 21.1844 10.1204 19.8507 9.84825 18.778C9.39569 16.7023 9.39569 14.5982 9.84825 12.5225C10.1204 11.4498 11.5121 10.1161 12.6184 9.86971C15.1477 9.38865 17.7123 9.38865 20.241 9.86971C21.3479 10.1161 22.7397 11.4498 23.0112 12.5225C23.4643 14.5982 23.4643 16.7024 23.0112 18.778Z" fill="#1A1C23"/>
<path d="M18.8365 20.1817C18.6664 20.1301 18.5043 20.0954 18.3538 20.0329C16.7941 19.3858 15.3586 18.551 14.2216 17.2712C13.5749 16.5435 13.0689 15.7219 12.641 14.8524C12.4382 14.4401 12.2672 14.0116 12.0929 13.5859C11.934 13.1977 12.1681 12.7966 12.4145 12.5042C12.6458 12.2297 12.9434 12.0196 13.2656 11.8648C13.5172 11.7439 13.7653 11.8136 13.949 12.0268C14.3461 12.4877 14.7109 12.9723 15.0063 13.5066C15.188 13.8352 15.1381 14.2369 14.8089 14.4606C14.7289 14.5149 14.656 14.5787 14.5815 14.6402C14.5161 14.694 14.4546 14.7483 14.4098 14.8212C14.3279 14.9545 14.324 15.1117 14.3767 15.2566C14.7827 16.3723 15.4669 17.2398 16.5899 17.7071C16.7696 17.7818 16.95 17.8689 17.157 17.8448C17.5037 17.8043 17.616 17.424 17.8589 17.2253C18.0964 17.0311 18.3998 17.0286 18.6556 17.1904C18.9114 17.3524 19.1594 17.5262 19.4059 17.7018C19.6479 17.8743 19.8888 18.0429 20.1121 18.2395C20.3267 18.4285 20.4006 18.6765 20.2797 18.933C20.0585 19.4028 19.7365 19.7936 19.2721 20.0431C19.141 20.1134 18.9844 20.1362 18.8365 20.1817C18.9844 20.1362 18.6664 20.13 18.8365 20.1817Z" fill="#1A1C23"/>
<path d="M16.4342 11.3275C18.4744 11.3847 20.1501 12.7386 20.5092 14.7556C20.5703 15.0993 20.5921 15.4507 20.6193 15.7995C20.6308 15.9462 20.5477 16.0856 20.3894 16.0875C20.2258 16.0894 20.1523 15.9526 20.1416 15.806C20.1206 15.5156 20.106 15.224 20.066 14.9361C19.8548 13.4163 18.643 12.159 17.1302 11.8892C16.9026 11.8486 16.6696 11.8379 16.439 11.8137C16.2933 11.7984 16.1023 11.7896 16.07 11.6084C16.043 11.4565 16.1712 11.3355 16.3158 11.3277C16.3552 11.3256 16.3947 11.3273 16.4342 11.3275C18.4744 11.3847 16.3947 11.3273 16.4342 11.3275Z" fill="#1A1C23"/>
<path d="M19.535 15.3467C19.5316 15.3722 19.5298 15.4321 19.5149 15.4885C19.4608 15.6933 19.1502 15.719 19.0787 15.5122C19.0575 15.4509 19.0543 15.3811 19.0542 15.3151C19.0535 14.8829 18.9596 14.4513 18.7417 14.0753C18.5177 13.6889 18.1755 13.3641 17.7741 13.1675C17.5314 13.0487 17.2689 12.9748 17.0029 12.9308C16.8866 12.9116 16.7691 12.8999 16.6523 12.8836C16.5107 12.8639 16.4351 12.7737 16.4418 12.6342C16.4481 12.5035 16.5436 12.4094 16.6861 12.4175C17.1543 12.4441 17.6065 12.5453 18.0228 12.7657C18.8692 13.2139 19.3528 13.9215 19.4939 14.8663C19.5003 14.9091 19.5105 14.9515 19.5138 14.9945C19.5218 15.1006 19.5268 15.2068 19.535 15.3467C19.5316 15.3722 19.5268 15.2068 19.535 15.3467Z" fill="#1A1C23"/>
<path d="M18.2666 15.2973C18.0959 15.3004 18.0046 15.2059 17.987 15.0494C17.9747 14.9403 17.9651 14.8297 17.939 14.7235C17.8878 14.5145 17.7766 14.3207 17.6007 14.1926C17.5177 14.1321 17.4236 14.088 17.3251 14.0596C17.1998 14.0234 17.0698 14.0334 16.9449 14.0027C16.8092 13.9695 16.7342 13.8596 16.7555 13.7324C16.7749 13.6165 16.8876 13.5261 17.0142 13.5353C17.8052 13.5924 18.3705 14.0013 18.4512 14.9325C18.4569 14.9982 18.4636 15.0677 18.449 15.1305C18.424 15.2381 18.3443 15.292 18.2666 15.2973C18.3443 15.292 18.0959 15.3004 18.2666 15.2973Z" fill="#1A1C23"/>
</g>
<defs>
<clipPath id="clip0_0_3897">
<rect width="32" height="32" fill="white"/>
</clipPath>
</defs>
</svg>
