<svg width="32" height="32" viewBox="0 0 32 32" fill="none" xmlns="http://www.w3.org/2000/svg">
<g clip-path="url(#clip0_0_3891)">
<path d="M0 16C0 24.8366 7.16344 32 16 32C24.8366 32 32 24.8366 32 16C32 7.16344 24.8366 0 16 0C7.16344 0 0 7.16344 0 16Z" fill="#F4F5F6"/>
<path d="M7 25.3599L8.28443 20.798C7.45847 19.3948 7.02359 17.7983 7.02359 16.1582C7.02359 11.1084 11.132 7 16.1818 7C21.2317 7 25.34 11.1084 25.34 16.1582C25.34 21.2081 21.2317 25.3165 16.1818 25.3165C14.6083 25.3165 13.0676 24.9137 11.7045 24.1489L7 25.3599ZM11.945 22.4828L12.2254 22.6539C13.4138 23.3794 14.7819 23.7629 16.1818 23.7629C20.3751 23.7629 23.7865 20.3515 23.7865 16.1582C23.7865 11.965 20.3751 8.55354 16.1818 8.55354C11.9886 8.55354 8.57713 11.965 8.57713 16.1582C8.57713 17.6193 8.99239 19.0382 9.7779 20.2614L9.96669 20.5553L9.22703 23.1824L11.945 22.4828Z" fill="#1A1C23"/>
<path d="M13.6104 11.8953L13.0161 11.8629C12.8295 11.8527 12.6464 11.9151 12.5053 12.0376C12.2172 12.2878 11.7565 12.7715 11.615 13.4018C11.4041 14.3415 11.7301 15.4923 12.574 16.6431C13.418 17.7938 14.9907 19.6351 17.7717 20.4215C18.6678 20.6749 19.3728 20.504 19.9167 20.1561C20.3475 19.8805 20.6445 19.4382 20.7515 18.9382L20.8464 18.4951C20.8765 18.3542 20.805 18.2113 20.6741 18.151L18.6658 17.2253C18.5354 17.1652 18.3808 17.2032 18.2931 17.3168L17.5046 18.3389C17.4451 18.4161 17.3431 18.4467 17.2511 18.4144C16.7111 18.2246 14.9025 17.4671 13.91 15.5555C13.867 15.4726 13.8777 15.3719 13.9387 15.3012L14.6923 14.4295C14.7693 14.3405 14.7887 14.2154 14.7424 14.1072L13.8767 12.0818C13.8306 11.9739 13.7273 11.9017 13.6104 11.8953Z" fill="#1A1C23"/>
</g>
<defs>
<clipPath id="clip0_0_3891">
<rect width="32" height="32" fill="white"/>
</clipPath>
</defs>
</svg>
